<svg xmlns="http://www.w3.org/2000/svg" xmlns:xlink="http://www.w3.org/1999/xlink" width="440px" height="380px" viewBox="0 0 441 384" version="1.1">
<g id="surface1">
<path style=" stroke:none;fill-rule:evenodd;fill:rgb(31.372549%,68.627451%,58.431373%);fill-opacity:1;" d="M 80.746094 1.953125 L 0.335938 170.957031 C -0.289062 172.25 -0.0078125 173.796875 1.039062 174.78125 L 218.207031 383.007812 C 219.488281 384.238281 221.511719 384.238281 222.792969 383.007812 L 439.960938 174.792969 C 441.007812 173.8125 441.289062 172.261719 440.664062 170.972656 L 360.253906 1.964844 C 359.722656 0.804688 358.5625 0.0625 357.289062 0.0664062 L 83.734375 0.0664062 C 82.457031 0.0507812 81.285156 0.789062 80.746094 1.953125 Z M 80.746094 1.953125 "/>
<path style=" stroke:none;fill-rule:evenodd;fill:rgb(100%,100%,100%);fill-opacity:1;" d="M 248.402344 188.3125 C 246.84375 188.429688 238.785156 188.914062 220.816406 188.914062 C 206.527344 188.914062 196.378906 188.484375 192.820312 188.3125 C 137.589844 185.882812 96.363281 176.261719 96.363281 164.746094 C 96.363281 153.226562 137.589844 143.617188 192.820312 141.148438 L 192.820312 178.734375 C 196.429688 178.992188 206.773438 179.605469 221.066406 179.605469 C 238.214844 179.605469 246.804688 178.890625 248.347656 178.746094 L 248.347656 141.175781 C 303.460938 143.632812 344.597656 153.253906 344.597656 164.746094 C 344.597656 176.238281 303.476562 185.855469 248.347656 188.300781 Z M 248.402344 137.289062 L 248.402344 103.65625 L 325.316406 103.65625 L 325.316406 52.367188 L 115.90625 52.367188 L 115.90625 103.65625 L 192.808594 103.65625 L 192.808594 137.273438 C 130.300781 140.148438 83.292969 152.535156 83.292969 167.382812 C 83.292969 182.230469 130.300781 194.605469 192.808594 197.492188 L 192.808594 305.265625 L 248.386719 305.265625 L 248.386719 197.453125 C 310.75 194.582031 357.679688 182.203125 357.679688 167.371094 C 357.679688 152.535156 310.789062 140.160156 248.386719 137.273438 Z M 248.402344 137.289062 Z M 248.402344 137.289062 "/>
</g>
</svg>
